<?xml version="1.0" encoding="UTF-8" standalone="no"?>
<svg
   viewBox="0 0 109.79692 129.50005"
   id="android"
   version="1.1"
   sodipodi:docname="android(2).svg"
   width="109.79692"
   height="129.50005"
   inkscape:version="1.1.2 (0a00cf5339, 2022-02-04)"
   xmlns:inkscape="http://www.inkscape.org/namespaces/inkscape"
   xmlns:sodipodi="http://sodipodi.sourceforge.net/DTD/sodipodi-0.dtd"
   xmlns="http://www.w3.org/2000/svg"
   xmlns:svg="http://www.w3.org/2000/svg">
  <defs
     id="defs7" />
  <sodipodi:namedview
     id="namedview5"
     pagecolor="#ffffff"
     bordercolor="#666666"
     borderopacity="1.0"
     inkscape:pageshadow="2"
     inkscape:pageopacity="0.0"
     inkscape:pagecheckerboard="0"
     showgrid="false"
     inkscape:zoom="5.2959352"
     inkscape:cx="59.762816"
     inkscape:cy="64.766654"
     inkscape:window-width="2506"
     inkscape:window-height="1371"
     inkscape:window-x="1974"
     inkscape:window-y="32"
     inkscape:window-maximized="1"
     inkscape:current-layer="android" />
  <path
     d="m 38.669009,28.06812 c 1.658391,0 2.996835,-1.343777 2.996835,-2.996835 0,-1.653057 -1.343777,-2.996834 -2.996835,-2.996834 -0.016,0 -0.03199,0 -0.05332,0 -0.799867,0 -1.519747,0.341276 -2.020997,0.879854 -0.52258,0.549241 -0.847858,1.295783 -0.847858,2.11698 0,0.821196 0.319947,1.567739 0.847858,2.11698 0.506583,0.543911 1.226462,0.885186 2.026328,0.885186 h 0.05865 -0.0053 z m 32.45859,0 h 0.05332 c 0.799867,0 1.519747,-0.341277 2.020996,-0.879855 0.522579,-0.549241 0.847858,-1.295784 0.847858,-2.11698 0,-0.821197 -0.319946,-1.567739 -0.847858,-2.11698 -0.506582,-0.54391 -1.226463,-0.885187 -2.026328,-0.885187 -0.02133,0 -0.03733,0 -0.05866,0 h 0.0053 c -1.65839,0 -2.996834,1.343777 -2.996834,2.996834 0,1.653058 1.343776,2.996835 2.996834,2.996835 z M 8.6793432,42.220426 c 4.3246128,0.02133 7.8280288,3.519414 7.8440248,7.844027 v 33.071819 0.149308 c 0,2.132978 -0.869187,4.068656 -2.271621,5.465756 -1.370439,1.423763 -3.290118,2.308949 -5.4230953,2.308949 -0.053325,0 -0.1066489,0 -0.1653058,0 h 0.010665 c -0.010665,0 -0.026662,0 -0.04266,0 -4.3512747,0 -7.88135285,-3.530079 -7.88135285,-7.881352 0,-0.016 0,-0.02666 0,-0.04266 v -33.07182 c 0,-0.032 0,-0.07465 0,-0.111982 0,-2.132978 0.88518575,-4.05799 2.30894845,-5.433761 1.3864355,-1.41843 3.3221129,-2.298284 5.4657555,-2.298284 h 0.1546409 -0.00533 z m 81.5224098,1.461089 v 51.223462 0.15464 c 0,2.28762 -0.943843,4.36194 -2.463589,5.844353 -1.471755,1.51975 -3.530079,2.46359 -5.807033,2.46359 -0.04266,0 -0.07999,0 -0.122646,0 h 0.0053 -5.769705 v 17.45843 c 0,4.3726 -3.546075,7.92401 -7.924012,7.92401 -4.377937,0 -7.924013,-3.54608 -7.924013,-7.92401 v -17.45843 h -10.61153 v 17.45843 0.0426 c 0,4.35127 -3.53008,7.88135 -7.881355,7.88135 -0.016,0 -0.03198,0 -0.04266,0 -0.03201,0 -0.07465,0 -0.111982,0 -2.132977,0 -4.05799,-0.88519 -5.43376,-2.30895 -1.423763,-1.39177 -2.308949,-3.32744 -2.308949,-5.47109 0,-0.0481 0,-0.10131 0,-0.14931 v 0.005 l -0.07465,-17.45843 h -5.684386 c -0.016,0 -0.03733,0 -0.05333,0 -4.639226,0 -8.403931,-3.764704 -8.403931,-8.40393 0,-0.02133 0,-0.03733 0,-0.05866 v 0.0053 -51.223462 z M 72.359393,12.540041 c 5.423098,2.772871 9.865024,6.782869 13.075155,11.678053 l 0.07999,0.127978 c 3.087486,4.617898 4.921847,10.302283 4.921847,16.407931 v 0.17064 -0.01067 h -71.14548 c 0,-0.04799 0,-0.106649 0,-0.165307 0,-6.110981 1.839693,-11.790034 4.991168,-16.519912 l -0.06932,0.106648 c 3.300783,-5.033826 7.769372,-9.043826 13.032495,-11.715379 l 0.191965,-0.09065 -5.460422,-10.0783203 c -0.133314,-0.170633 -0.2133,-0.3839308 -0.2133,-0.6185583 0,-0.4052658 0.23996,-0.7572072 0.586569,-0.91718045 h 0.0053 c 0.160006,-0.10131646 0.357306,-0.16530578 0.570604,-0.16530578 0.426595,0 0.799866,0.25595733 0.970505,0.61856363 l 0.0053,0.00533 5.545742,10.1529752 c 4.553908,-2.0423273 9.865022,-3.2314624 15.458756,-3.2314624 5.593735,0 10.904849,1.1891351 15.70405,3.3274464 L 70.36507,11.526869 75.910813,1.3738936 c 0.170638,-0.3732711 0.543909,-0.62389595 0.970504,-0.62389595 0.213297,0 0.405265,0.0639893 0.575904,0.16530577 h -0.0053 c 0.351941,0.15997328 0.597233,0.51191468 0.597233,0.92251288 0,0.2346276 -0.07999,0.4479253 -0.213297,0.6185636 z m 36.687217,37.540408 v 33.07182 0.04266 c 0,4.351275 -3.53008,7.881353 -7.88136,7.881353 -0.016,0 -0.032,0 -0.0427,0 -0.032,0 -0.0747,0 -0.11198,0 -2.13298,0 -4.057991,-0.885186 -5.433762,-2.308949 -1.423763,-1.391768 -2.308948,-3.327445 -2.308948,-5.471088 0,-0.04799 0,-0.101312 0,-0.149308 v 0.0053 -33.07182 c 0,-0.04799 0,-0.101322 0,-0.154641 0,-2.127645 0.885185,-4.052657 2.308948,-5.417763 1.381103,-1.402434 3.300782,-2.271621 5.423102,-2.271621 h 0.12798 -0.005 0.14931 c 2.13298,0 4.06866,0.869187 5.46576,2.271621 1.42377,1.370439 2.30895,3.290118 2.30895,5.423095 v 0.143976 -0.0053 z"
     id="path2"
     style="fill:#a4c439;stroke:#000000;stroke-width:1.5;stroke-linecap:round;stroke-linejoin:round;stroke-miterlimit:4;stroke-dasharray:none;stroke-opacity:1;paint-order:normal" />
</svg>
