<svg xmlns="http://www.w3.org/2000/svg" xml:space="preserve" id="docx-file" x="0" y="0" enable-background="new 0 0 512 512" version="1.1" viewBox="0 0 512 512">
  <path fill="#008bf5" fill-rule="evenodd" d="M168.579,0h173.378l153.1,153.07v293.997c0,35.729-29.233,64.933-64.933,64.933H168.579
		c-35.7,0-64.933-29.204-64.933-64.933V64.933C103.647,29.203,132.88,0,168.579,0L168.579,0z" clip-rule="evenodd"></path>
  <path fill="#006fc4" fill-rule="evenodd" d="M341.958 0l153.1 153.07H358.491c-9.1 0-16.533-7.403-16.533-16.504V0zM31.193 218.003h352.638c7.813 0 14.251 6.408 14.251 14.251v129.368c0 7.842-6.438 14.28-14.251 14.28H31.193c-7.842 0-14.251-6.438-14.251-14.28V232.254C16.943 224.411 23.351 218.003 31.193 218.003L31.193 218.003z" clip-rule="evenodd"></path>
  <path fill="#fff" d="M169.779,244.413c-19.225,0-34.865,15.641-34.865,34.865v35.348c0,19.225,15.641,34.865,34.865,34.865
		c19.226,0,34.866-15.641,34.866-34.865v-35.348C204.645,260.053,189.005,244.413,169.779,244.413z M188.112,314.626
		c0,10.108-8.224,18.332-18.333,18.332c-10.108,0-18.332-8.224-18.332-18.332v-35.348c0-10.108,8.224-18.332,18.332-18.332
		c10.109,0,18.333,8.224,18.333,18.332V314.626z M232.327,279.278v35.348c0,10.108,8.224,18.332,18.332,18.332
		c10.109,0,18.333-8.224,18.333-18.332c0-4.566,3.701-8.267,8.267-8.267c4.566,0,8.266,3.701,8.266,8.267
		c0,19.225-15.641,34.865-34.866,34.865c-19.225,0-34.865-15.641-34.865-34.865v-35.348c0-19.225,15.641-34.865,34.865-34.865
		c19.226,0,34.866,15.641,34.866,34.865c0,4.566-3.701,8.267-8.266,8.267c-4.566,0-8.267-3.701-8.267-8.267
		c0-10.108-8.224-18.332-18.333-18.332C240.551,260.946,232.327,269.17,232.327,279.278z M87.494,244.413H60.895
		c-4.566,0-8.266,3.701-8.266,8.266v88.546c0,4.566,3.701,8.266,8.266,8.266h26.599c19.225,0,34.865-15.641,34.865-34.865v-35.348
		C122.36,260.053,106.719,244.413,87.494,244.413z M105.827,314.626c0,10.108-8.224,18.332-18.332,18.332H69.162v-72.013h18.332
		c10.108,0,18.332,8.224,18.332,18.332V314.626z M361.188,336.968c2.351,3.913,1.085,8.992-2.829,11.343
		c-1.333,0.8-2.801,1.181-4.249,1.181c-2.807,0-5.544-1.43-7.094-4.01l-19.513-32.479l-19.513,32.479
		c-1.55,2.581-4.288,4.01-7.094,4.01c-1.45,0-2.916-0.381-4.249-1.181c-3.913-2.351-5.18-7.43-2.829-11.343l24.042-40.016
		l-24.042-40.016c-2.351-3.913-1.085-8.992,2.829-11.343c3.915-2.351,8.992-1.084,11.343,2.829l19.513,32.479l19.513-32.479
		c2.351-3.913,7.429-5.18,11.343-2.829c3.913,2.351,5.18,7.43,2.829,11.343l-24.042,40.016L361.188,336.968z"></path>
</svg>
